{
  "accessors": [
    {
      "bufferView": 2,
      "componentType": 5126,
      "count": 8436,
      "max": [
        1.6064800024032593,
        0.9682700037956238,
        0.5574899911880493
      ],
      "min": [
        -1.6064800024032593,
        -0.9682700037956238,
        -0.5574899911880493
      ],
      "type": "VEC3"
    },
    {
      "bufferView": 2,
      "byteOffset": 101232,
      "componentType": 5126,
      "count": 8436,
      "max": [
        1.0,
        1.0,
        1.0
      ],
      "min": [
        -1.0,
        -1.0,
        -1.0
      ],
      "type": "VEC3"
    },
    {
      "bufferView": 0,
      "componentType": 5125,
      "count": 46464,
      "type": "SCALAR"
    },
    {
      "bufferView": 2,
      "byteOffset": 202464,
      "componentType": 5126,
      "count": 27118,
      "max": [
        1.654770016670227,
        1.0385199785232544,
        0.6191800236701965
      ],
      "min": [
        -1.654770016670227,
        -1.0385199785232544,
        -0.6191800236701965
      ],
      "type": "VEC3"
    },
    {
      "bufferView": 2,
      "byteOffset": 527880,
      "componentType": 5126,
      "count": 27118,
      "max": [
        1.0,
        0.9999999403953552,
        1.0
      ],
      "min": [
        -1.0,
        -0.9999999403953552,
        -1.0
      ],
      "type": "VEC3"
    },
    {
      "bufferView": 0,
      "byteOffset": 185856,
      "componentType": 5125,
      "count": 153600,
      "type": "SCALAR"
    },
    {
      "bufferView": 2,
      "byteOffset": 853296,
      "componentType": 5126,
      "count": 7488,
      "max": [
        1.654770016670227,
        1.0385199785232544,
        0.5234500169754028
      ],
      "min": [
        -1.654770016670227,
        -1.0385199785232544,
        -0.5234500169754028
      ],
      "type": "VEC3"
    },
    {
      "bufferView": 2,
      "byteOffset": 943152,
      "componentType": 5126,
      "count": 7488,
      "max": [
        0.9901914596557617,
        0.9176031351089478,
        0.9731917977333069
      ],
      "min": [
        -0.9901914596557617,
        -0.9176031351089478,
        -0.9731917977333069
      ],
      "type": "VEC3"
    },
    {
      "bufferView": 0,
      "byteOffset": 800256,
      "componentType": 5125,
      "count": 39936,
      "type": "SCALAR"
    },
    {
      "bufferView": 2,
      "byteOffset": 1033008,
      "componentType": 5126,
      "count": 4,
      "max": [
        1.0,
        1.0,
        0.0
      ],
      "min": [
        -1.0,
        -1.0,
        0.0
      ],
      "type": "VEC3"
    },
    {
      "bufferView": 2,
      "byteOffset": 1033056,
      "componentType": 5126,
      "count": 4,
      "max": [
        0.0,
        0.0,
        1.0
      ],
      "min": [
        0.0,
        0.0,
        1.0
      ],
      "type": "VEC3"
    },
    {
      "bufferView": 3,
      "componentType": 5126,
      "count": 4,
      "max": [
        1.0,
        0.0,
        0.0,
        1.0
      ],
      "min": [
        1.0,
        0.0,
        0.0,
        1.0
      ],
      "type": "VEC4"
    },
    {
      "bufferView": 1,
      "componentType": 5126,
      "count": 4,
      "max": [
        0.9998999834060669,
        0.9998999834060669
      ],
      "min": [
        9.999999747378752e-05,
        9.999999747378752e-05
      ],
      "type": "VEC2"
    },
    {
      "bufferView": 0,
      "byteOffset": 960000,
      "componentType": 5125,
      "count": 6,
      "type": "SCALAR"
    },
    {
      "bufferView": 2,
      "byteOffset": 1033104,
      "componentType": 5126,
      "count": 13,
      "max": [
        1.0,
        0.14473000168800354,
        0.0
      ],
      "min": [
        -1.0,
        -1.527400016784668,
        0.0
      ],
      "type": "VEC3"
    },
    {
      "bufferView": 2,
      "byteOffset": 1033260,
      "componentType": 5126,
      "count": 13,
      "max": [
        0.0,
        -0.0,
        1.0
      ],
      "min": [
        0.0,
        -0.0,
        1.0
      ],
      "type": "VEC3"
    },
    {
      "bufferView": 1,
      "byteOffset": 32,
      "componentType": 5126,
      "count": 13,
      "max": [
        1.0,
        0.9762899875640869
      ],
      "min": [
        0.0,
        -0.25738999247550964
      ],
      "type": "VEC2"
    },
    {
      "bufferView": 0,
      "byteOffset": 960024,
      "componentType": 5125,
      "count": 33,
      "type": "SCALAR"
    },
    {
      "bufferView": 2,
      "byteOffset": 1033416,
      "componentType": 5126,
      "count": 4,
      "max": [
        1.1472899913787842,
        0.5,
        0.0
      ],
      "min": [
        -1.1472899913787842,
        -0.5,
        0.0
      ],
      "type": "VEC3"
    },
    {
      "bufferView": 2,
      "byteOffset": 1033464,
      "componentType": 5126,
      "count": 4,
      "max": [
        0.0,
        0.0,
        1.0
      ],
      "min": [
        0.0,
        0.0,
        1.0
      ],
      "type": "VEC3"
    },
    {
      "bufferView": 1,
      "byteOffset": 136,
      "componentType": 5126,
      "count": 4,
      "max": [
        1.0,
        1.0
      ],
      "min": [
        0.0,
        0.0
      ],
      "type": "VEC2"
    },
    {
      "bufferView": 0,
      "byteOffset": 960156,
      "componentType": 5125,
      "count": 6,
      "type": "SCALAR"
    }
  ],
  "asset": {
    "extras": {
      "author": "Tefloman (https://sketchfab.com/lucas.avendano13)",
      "license": "CC-BY-4.0 (http://creativecommons.org/licenses/by/4.0/)",
      "source": "https://sketchfab.com/3d-models/holographic-computer-0a51f98ffeab420889c0c03b88fa2f42",
      "title": "Holographic Computer"
    },
    "generator": "Sketchfab-12.68.0",
    "version": "2.0"
  },
  "bufferViews": [
    {
      "buffer": 0,
      "byteLength": 960180,
      "name": "floatBufferViews",
      "target": 34963
    },
    {
      "buffer": 0,
      "byteLength": 168,
      "byteOffset": 960180,
      "byteStride": 8,
      "name": "floatBufferViews",
      "target": 34962
    },
    {
      "buffer": 0,
      "byteLength": 1033512,
      "byteOffset": 960348,
      "byteStride": 12,
      "name": "floatBufferViews",
      "target": 34962
    },
    {
      "buffer": 0,
      "byteLength": 64,
      "byteOffset": 1993860,
      "byteStride": 16,
      "name": "floatBufferViews",
      "target": 34962
    }
  ],
  "buffers": [
    {
      "byteLength": 1993924,
      "uri": "scene.bin"
    }
  ],
  "extensionsRequired": [
    "KHR_materials_pbrSpecularGlossiness"
  ],
  "extensionsUsed": [
    "KHR_materials_pbrSpecularGlossiness"
  ],
  "images": [
    {
      "uri": "textures/Keyboard-ref2_diffuse.png"
    },
    {
      "uri": "textures/Material.004_emissive.png"
    },
    {
      "uri": "textures/Material.005_normal.png"
    }
  ],
  "materials": [
    {
      "alphaMode": "BLEND",
      "doubleSided": true,
      "extensions": {
        "KHR_materials_pbrSpecularGlossiness": {
          "diffuseFactor": [
            1.0,
            1.0,
            1.0,
            1.0
          ],
          "diffuseTexture": {
            "index": 0
          },
          "glossinessFactor": 0.4,
          "specularFactor": [
            0.0,
            0.0,
            0.0
          ]
        }
      },
      "name": "Keyboard-ref2"
    },
    {
      "alphaMode": "BLEND",
      "doubleSided": true,
      "emissiveFactor": [
        1.0,
        1.0,
        1.0
      ],
      "emissiveTexture": {
        "index": 1
      },
      "extensions": {
        "KHR_materials_pbrSpecularGlossiness": {
          "diffuseFactor": [
            0.0,
            0.0,
            0.0,
            0.6564417178
          ],
          "glossinessFactor": 1.0,
          "specularFactor": [
            0.0,
            0.0,
            0.0
          ]
        }
      },
      "name": "Material.004"
    },
    {
      "doubleSided": true,
      "extensions": {
        "KHR_materials_pbrSpecularGlossiness": {
          "diffuseFactor": [
            0.0517662898,
            0.0517662898,
            0.0517662898,
            1.0
          ],
          "glossinessFactor": 0.4478527607,
          "specularFactor": [
            0.6748466258,
            0.6748466258,
            0.6748466258
          ]
        }
      },
      "name": "Material.005",
      "normalTexture": {
        "index": 2
      }
    },
    {
      "doubleSided": true,
      "emissiveFactor": [
        1.0,
        1.0,
        1.0
      ],
      "extensions": {
        "KHR_materials_pbrSpecularGlossiness": {
          "diffuseFactor": [
            1.0,
            1.0,
            1.0,
            1.0
          ],
          "glossinessFactor": 0.4,
          "specularFactor": [
            1.0,
            1.0,
            1.0
          ]
        }
      },
      "name": "Material.002"
    },
    {
      "doubleSided": true,
      "extensions": {
        "KHR_materials_pbrSpecularGlossiness": {
          "diffuseFactor": [
            0.0342184214,
            0.0306165801,
            0.0306165801,
            1.0
          ],
          "glossinessFactor": 0.4,
          "specularFactor": [
            1.0,
            1.0,
            1.0
          ]
        }
      },
      "name": "Material.001"
    },
    {
      "doubleSided": true,
      "extensions": {
        "KHR_materials_pbrSpecularGlossiness": {
          "diffuseFactor": [
            0.0465594722,
            0.0465594722,
            0.0465594722,
            1.0
          ],
          "glossinessFactor": 0.8098159509,
          "specularFactor": [
            1.0,
            1.0,
            1.0
          ]
        }
      },
      "name": "Area.001"
    }
  ],
  "meshes": [
    {
      "name": "Circle_0",
      "primitives": [
        {
          "attributes": {
            "NORMAL": 1,
            "POSITION": 0
          },
          "indices": 2,
          "material": 3,
          "mode": 4
        }
      ]
    },
    {
      "name": "Circle_1",
      "primitives": [
        {
          "attributes": {
            "NORMAL": 4,
            "POSITION": 3
          },
          "indices": 5,
          "material": 4,
          "mode": 4
        }
      ]
    },
    {
      "name": "Circle_2",
      "primitives": [
        {
          "attributes": {
            "NORMAL": 7,
            "POSITION": 6
          },
          "indices": 8,
          "material": 5,
          "mode": 4
        }
      ]
    },
    {
      "name": "Plane_0",
      "primitives": [
        {
          "attributes": {
            "NORMAL": 10,
            "POSITION": 9,
            "TANGENT": 11,
            "TEXCOORD_0": 12
          },
          "indices": 13,
          "material": 2,
          "mode": 4
        }
      ]
    },
    {
      "name": "Plane.001_0",
      "primitives": [
        {
          "attributes": {
            "NORMAL": 15,
            "POSITION": 14,
            "TEXCOORD_0": 16
          },
          "indices": 17,
          "material": 1,
          "mode": 4
        }
      ]
    },
    {
      "name": "Keyboard-ref2_0",
      "primitives": [
        {
          "attributes": {
            "NORMAL": 19,
            "POSITION": 18,
            "TEXCOORD_0": 20
          },
          "indices": 21,
          "material": 0,
          "mode": 4
        }
      ]
    }
  ],
  "nodes": [
    {
      "children": [
        1
      ],
      "matrix": [
        1.0,
        0.0,
        0.0,
        0.0,
        0.0,
        2.220446049250313e-16,
        -1.0,
        0.0,
        0.0,
        1.0,
        2.220446049250313e-16,
        0.0,
        0.0,
        0.0,
        0.0,
        1.0
      ],
      "name": "Sketchfab_model"
    },
    {
      "children": [
        2,
        4,
        8,
        10,
        12,
        14,
        16
      ],
      "name": "Root"
    },
    {
      "children": [
        3
      ],
      "matrix": [
        -0.29086000000000006,
        0.9551700000000001,
        -0.05519000000000001,
        0.0,
        -0.7711,
        -0.19988000000000003,
        0.6045200000000001,
        0.0,
        0.5663900000000001,
        0.21839000000000003,
        0.7946700000000001,
        0.0,
        4.076250000000001,
        1.00545,
        5.903860000000001,
        1.0
      ],
      "name": "Lamp"
    },
    {
      "name": "Lamp"
    },
    {
      "children": [
        5,
        6,
        7
      ],
      "matrix": [
        1.0,
        0.0,
        0.0,
        0.0,
        0.0,
        1.0,
        0.0,
        0.0,
        0.0,
        0.0,
        1.0,
        0.0,
        0.0,
        -0.0,
        0.6380400000000002,
        1.0
      ],
      "name": "Circle"
    },
    {
      "mesh": 0,
      "name": "Circle_0"
    },
    {
      "mesh": 1,
      "name": "Circle_1"
    },
    {
      "mesh": 2,
      "name": "Circle_2"
    },
    {
      "children": [
        9
      ],
      "matrix": [
        10.0,
        0.0,
        0.0,
        0.0,
        0.0,
        10.0,
        0.0,
        0.0,
        0.0,
        0.0,
        10.0,
        0.0,
        0.0,
        0.0,
        0.0,
        1.0
      ],
      "name": "Plane"
    },
    {
      "mesh": 3,
      "name": "Plane_0"
    },
    {
      "children": [
        11
      ],
      "matrix": [
        3.2844,
        0.0,
        0.0,
        0.0,
        0.0,
        -0.0,
        3.2844,
        0.0,
        0.0,
        -3.2844,
        -0.0,
        0.0,
        0.0,
        0.0,
        6.13071,
        1.0
      ],
      "name": "Plane.001"
    },
    {
      "mesh": 4,
      "name": "Plane.001_0"
    },
    {
      "children": [
        13
      ],
      "matrix": [
        3.17725,
        0.0,
        0.0,
        0.0,
        0.0,
        3.17725,
        0.0,
        0.0,
        -0.0,
        0.0,
        3.17725,
        0.0,
        0.0,
        -3.02221,
        0.25162,
        1.0
      ],
      "name": "Keyboard-ref2"
    },
    {
      "mesh": 5,
      "name": "Keyboard-ref2_0"
    },
    {
      "children": [
        15
      ],
      "matrix": [
        0.0,
        -0.65336,
        0.7570500000000001,
        0.0,
        0.70711,
        0.53532,
        0.46199,
        0.0,
        -0.70711,
        0.53532,
        0.46199,
        0.0,
        -11.96016,
        9.91828,
        5.43702,
        1.0
      ],
      "name": "Area"
    },
    {
      "name": "Area"
    },
    {
      "children": [
        17
      ],
      "matrix": [
        -0.0,
        0.65336,
        0.7570500000000001,
        0.0,
        -0.70711,
        -0.53532,
        0.46199,
        0.0,
        0.70711,
        -0.53532,
        0.46199,
        0.0,
        12.70905,
        -10.311430000000001,
        5.43702,
        1.0
      ],
      "name": "Area.001"
    },
    {
      "name": "Area.001"
    }
  ],
  "samplers": [
    {
      "magFilter": 9729,
      "minFilter": 9987,
      "wrapS": 10497,
      "wrapT": 10497
    }
  ],
  "scene": 0,
  "scenes": [
    {
      "name": "Sketchfab_Scene",
      "nodes": [
        0
      ]
    }
  ],
  "textures": [
    {
      "sampler": 0,
      "source": 0
    },
    {
      "sampler": 0,
      "source": 1
    },
    {
      "sampler": 0,
      "source": 2
    }
  ]
}
