<svg xmlns="http://www.w3.org/2000/svg" version="1.1" xmlns:xlink="http://www.w3.org/1999/xlink" xmlns:svgjs="http://svgjs.dev/svgjs" width="1000" height="1000" viewBox="0 0 1000 1000"><rect width="1000" height="1000" fill="none"></rect><g transform="matrix(0.7,0,0,0.7,150,150)"><svg viewBox="0 0 280 280" data-background-color="#ffffff" preserveAspectRatio="xMidYMid meet" height="1000" width="1000" xmlns="http://www.w3.org/2000/svg" xmlns:xlink="http://www.w3.org/1999/xlink"><defs></defs><g id="tight-bounds" transform="matrix(1,0,0,1,0,0)"><svg viewBox="0 0 280 280" height="280" width="280"><g><svg viewBox="0 0 280 280" height="280" width="280"><g><svg viewBox="0 0 280 280" height="280" width="280"><g><svg viewBox="0 0 280 280" height="280" width="280"><g><svg viewBox="0 0 280 280" height="280" width="280"><g transform="matrix(1,0,0,1,74.016749869811,80.88498149650582)"><svg viewBox="0 0 131.966500260378 118.23003700698835" height="118.23003700698835" width="131.966500260378"><g><svg xmlns="http://www.w3.org/2000/svg" xmlns:xlink="http://www.w3.org/1999/xlink" version="1.1" x="0" y="0" viewBox="0.9850000143051147 6.086999893188477 98.02999877929688 87.82600402832031" enable-background="new 0 0 100 100" xml:space="preserve" height="118.23003700698835" width="131.966500260378" class="icon-o-0" data-fill-palette-color="accent" id="o-0"><path d="M50 6.087C22.93 6.087 0.985 25.748 0.985 50 0.985 74.253 22.93 93.913 50 93.913c27.07 0 49.015-19.66 49.015-43.913C99.015 25.748 77.07 6.087 50 6.087zM74.833 69.08c-32.125 19.166-60.851-0.667-66.379-6.454 14.492 11.331 37.288 14.851 56.379 6.787C76.146 64.037 82.172 56.755 85 47.079c2.829-10.751-0.536-20.965-11.143-27.954-9.899-6.451-22.628-8.601-35.355-5.376-9.899 3.226-17.678 9.139-20.506 17.74-3.535 9.139 2.829 18.277 13.435 23.115 10.606 3.763 25.456 2.15 31.113-6.45 3.535-5.914 2.121-13.44-5.657-17.203-3.535-1.613-8.303-1.955-10.86 0.174-3.521 2.932 1.89 0.361 5.874 2.206 2.517 1.165 5.6 3.165 4.986 8.372-0.772 6.559-11.313 9.677-18.385 7.526-7.778-2.688-11.314-8.601-10.606-14.515 1.414-6.451 7.778-11.289 15.557-12.902 13.435-2.688 25.455 4.301 29.698 13.978 3.535 9.138-2.121 17.739-12.021 23.115-8.484 4.301-18.385 5.376-27.577 2.688-13.435-3.763-22.627-12.901-23.334-24.19C9.511 22.888 22.238 12.137 39.916 8.374c19.799-3.225 39.598 4.301 48.083 18.277C95.777 41.166 91.609 59.071 74.833 69.08z" fill="#ffffff" data-fill-palette-color="accent"></path></svg></g></svg></g><path d="M33.159 101.665c-1.155 3.173-2.765 5.545-4.828 7.115-2.061 1.565-4.437 1.857-7.127 0.878v0l-0.795-0.332 1.538-4.223c0.339 0.18 0.587 0.299 0.744 0.356v0c1.43 0.521 2.743 0.317 3.94-0.611 1.189-0.924 2.156-2.411 2.903-4.461v0c0.82-2.251 1.107-4.074 0.863-5.47-0.247-1.389-0.997-2.313-2.251-2.769v0c-0.897-0.327-1.748-0.281-2.553 0.136-0.799 0.419-1.549 1.045-2.249 1.876-0.694 0.834-1.556 1.99-2.585 3.469v0c-1.293 1.873-2.44 3.376-3.442 4.509-1.006 1.125-2.182 1.964-3.527 2.519-1.351 0.552-2.845 0.53-4.482-0.066v0c-2.326-0.847-3.748-2.452-4.266-4.814-0.518-2.362-0.217-5.079 0.902-8.151v0c1.101-3.022 2.62-5.246 4.559-6.67 1.939-1.424 4.163-1.68 6.671-0.766v0l0.461 0.168-1.511 4.147-0.498-0.181c-1.229-0.448-2.382-0.246-3.459 0.605-1.079 0.857-1.941 2.17-2.584 3.937v0c-0.69 1.894-0.957 3.497-0.804 4.81 0.158 1.322 0.776 2.179 1.855 2.572v0c0.79 0.288 1.56 0.22 2.311-0.203 0.75-0.423 1.46-1.034 2.127-1.835 0.668-0.801 1.495-1.92 2.48-3.358v0c1.348-1.945 2.515-3.484 3.502-4.615 0.994-1.13 2.168-1.984 3.522-2.563 1.361-0.577 2.859-0.567 4.496 0.028v0c2.815 1.025 4.51 2.757 5.085 5.197 0.575 2.439 0.242 5.361-0.998 8.766zM42.997 80.996l-20.198-13.153-5.08 7.8-3.288-2.141 12.64-19.409 3.288 2.141-5.085 7.809 20.197 13.154zM49.085 71.396l-12.219-27.482 4.032-4.065 27.548 12.023-3.39 3.418-6.659-2.98-9.092 9.169 3.064 6.605zM47.562 57.735l7.048-7.108-7.992-3.611-5.007-2.371-0.141 0.142 0.493 1.01c0.676 1.328 1.306 2.625 1.892 3.892v0zM81.312 44.495c-3.779 2.377-7.286 3.169-10.522 2.374-3.236-0.795-6.152-3.256-8.75-7.385v0c-2.583-4.106-3.537-7.795-2.859-11.067 0.677-3.272 2.905-6.097 6.683-8.474v0c3.09-1.944 6.071-2.744 8.945-2.399 2.871 0.354 5.235 2.005 7.089 4.953v0l-3.905 2.457c-1.173-1.864-2.651-2.936-4.436-3.217-1.781-0.275-3.652 0.204-5.612 1.438v0c-2.604 1.638-4.078 3.555-4.423 5.751-0.339 2.192 0.437 4.818 2.33 7.876v0l0.234 0.373c1.93 3.067 3.962 4.918 6.097 5.554 2.14 0.632 4.512 0.129 7.116-1.508v0c2.028-1.276 3.316-2.768 3.864-4.478 0.545-1.715 0.231-3.504-0.941-5.368v0l3.77-2.372c1.869 2.971 2.337 5.807 1.403 8.507-0.943 2.699-2.971 5.027-6.083 6.985zM95.111 36.491l-8.814-26.605 4.305-1.426 4.677 14.12 8.862-18.606 5.236-1.734-6.657 14.089 15.775 12.415-5.074 1.681-12.608-10.111-3.966 6.998 2.568 7.753zM125.551 28.998l-8.794-27.752 4.772-0.157 5.766 18.819c0.216 0.674 0.575 2.051 1.077 4.13v0l0.21-0.006 0.634-4.188 3.627-19.127 6.043-0.199 4.996 18.844c0.213 0.781 0.528 2.159 0.947 4.135v0l0.21-0.007c0.366-2.082 0.633-3.479 0.804-4.192v0l4.437-19.155 4.362-0.143-6.952 28.27-5.682 0.187-5.12-18.96c-0.275-1.053-0.606-2.501-0.995-4.344v0l-0.21 0.007c-0.234 2.024-0.443 3.49-0.626 4.397v0l-3.824 19.255zM157.611 28.73l6.183-27.336 21.205 4.796-0.857 3.788-16.782-3.796-1.74 7.693 15.025 3.398-0.855 3.779-15.025-3.399-1.875 8.289 17.017 3.849-0.857 3.788zM182.927 35.69l12.323-25.172 12.847 6.29c1.366 0.669 2.457 1.522 3.271 2.56 0.811 1.029 1.285 2.163 1.421 3.403 0.139 1.234-0.091 2.463-0.69 3.686v0c-0.681 1.39-1.657 2.413-2.929 3.068-1.275 0.646-2.632 0.862-4.072 0.648v0l-0.071 0.144c1.313 1.037 2.149 2.319 2.508 3.846 0.362 1.522 0.129 3.128-0.698 4.819v0c-1.1 2.248-2.639 3.593-4.618 4.036-1.978 0.443-4.127 0.097-6.446-1.038v0zM194.169 23.039l7.857 3.847c1.145 0.56 2.226 0.689 3.244 0.385 1.012-0.307 1.775-0.985 2.289-2.034v0c0.575-1.175 0.689-2.211 0.341-3.11-0.348-0.898-1.073-1.617-2.176-2.157v0l-8.109-3.97zM188.707 34.196l8.477 4.15c1.223 0.599 2.325 0.759 3.308 0.483 0.989-0.274 1.8-1.058 2.434-2.353v0c0.622-1.271 0.739-2.413 0.351-3.427-0.384-1.006-1.263-1.844-2.635-2.517v0l-8.181-4.005zM206.499 48.559l17.97-21.508 8.281 6.918c3.385 2.828 5.254 5.899 5.608 9.212 0.354 3.313-0.98 6.777-4 10.392v0c-3.021 3.615-6.192 5.544-9.516 5.785-3.323 0.241-6.677-1.053-10.062-3.881v0zM212.469 48.486l4.801 4.011c2.279 1.904 4.529 2.745 6.75 2.522 2.222-0.213 4.426-1.628 6.612-4.245v0l0.282-0.338c2.203-2.637 3.213-5.068 3.027-7.293-0.176-2.225-1.403-4.29-3.681-6.193v0l-4.801-4.011zM227.524 67.717l22.509-16.699 12.954 17.461-3.119 2.314-10.252-13.819-6.335 4.699 9.179 12.372-3.111 2.308-9.179-12.372-6.825 5.064 10.395 14.011-3.119 2.314zM245.072 96.563l21.933-20.281 1.878 4.531-14.824 13.434-1.03 0.915-2.46 2.168 0.08 0.194 2.718-0.162c0.395-0.041 0.758-0.072 1.088-0.093 0.331-0.021 0.624-0.038 0.878-0.05v0l19.93-1.01 1.782 4.3-29.831 1.223zM11.969 192.972c-1.181-3.227-1.483-6.13-0.906-8.707 0.579-2.571 2.235-4.357 4.967-5.357v0l0.832-0.262 1.572 4.295c-0.382 0.083-0.651 0.153-0.807 0.211v0c-1.454 0.532-2.342 1.55-2.666 3.054-0.317 1.502-0.094 3.296 0.67 5.383v0c0.837 2.287 1.809 3.893 2.914 4.817 1.106 0.924 2.295 1.153 3.567 0.688v0c0.909-0.333 1.54-0.926 1.895-1.781 0.349-0.853 0.521-1.829 0.517-2.929-0.007-1.106-0.093-2.574-0.259-4.403v0c-0.226-2.305-0.317-4.226-0.275-5.762 0.042-1.536 0.408-2.963 1.097-4.282 0.686-1.31 1.859-2.269 3.52-2.876v0c2.369-0.867 4.53-0.553 6.484 0.941 1.95 1.503 3.496 3.815 4.639 6.936v0c1.124 3.071 1.397 5.795 0.818 8.175-0.57 2.383-2.13 4.042-4.681 4.975v0l-0.47 0.172-1.545-4.221 0.507-0.186c1.247-0.456 2.011-1.369 2.292-2.736 0.279-1.374 0.089-2.96-0.569-4.759v0c-0.704-1.924-1.549-3.348-2.534-4.273-0.983-0.919-2.023-1.178-3.12-0.777v0c-0.802 0.294-1.359 0.849-1.671 1.667-0.303 0.822-0.452 1.764-0.446 2.828 0.003 1.058 0.094 2.47 0.272 4.238v0c0.222 2.392 0.318 4.353 0.289 5.885-0.029 1.531-0.381 2.968-1.056 4.309-0.674 1.341-1.845 2.317-3.512 2.927v0c-2.857 1.046-5.311 0.807-7.361-0.716-2.05-1.524-3.708-4.015-4.974-7.474zM24.91 217.566l20.536-13.404-5.181-7.938 3.344-2.183 12.885 19.74-3.345 2.183-5.181-7.938-20.536 13.405zM33.548 230.329l28.066-12.197 4.095 4.13-12.463 27.933-3.453-3.483 3.086-6.753-9.246-9.325-6.752 3.057zM47.455 228.887l7.175 7.236 3.736-8.102 2.456-5.072-0.141-0.142-1.036 0.491c-1.348 0.678-2.672 1.31-3.971 1.894v0zM69.217 261.296c-3.845-2.422-6.113-5.294-6.804-8.617-0.695-3.316 0.279-7.072 2.922-11.267v0c2.632-4.178 5.597-6.675 8.896-7.492 3.302-0.822 6.875-0.022 10.72 2.401v0c3.145 1.981 5.188 4.365 6.131 7.151 0.944 2.795 0.472 5.692-1.417 8.69v0l-3.981-2.508c1.195-1.897 1.53-3.725 1.006-5.483-0.534-1.756-1.798-3.262-3.791-4.518v0c-2.648-1.668-5.052-2.177-7.213-1.527-2.166 0.647-4.237 2.513-6.212 5.598v0l-0.24 0.381c-1.967 3.122-2.769 5.803-2.405 8.044 0.358 2.236 1.861 4.189 4.508 5.857v0c2.066 1.302 4.003 1.828 5.809 1.577 1.815-0.252 3.32-1.327 4.515-3.224v0l3.837 2.417c-1.907 3.026-4.306 4.701-7.199 5.024-2.887 0.326-5.914-0.508-9.082-2.504zM88.019 270.608l8.994-27.062 4.379 1.456-4.774 14.362 18.547-9.785 5.328 1.771-13.999 7.435 5.319 19.731-5.168-1.717-4.128-15.918-7.496 3.289-2.624 7.893zM124.585 279.247l-7.07-28.769 4.861 0.162 4.587 19.493c0.17 0.7 0.443 2.125 0.818 4.274v0l0.21 0.007 0.933-4.216 4.967-19.173 6.142 0.206 3.806 19.466c0.166 0.813 0.396 2.237 0.689 4.269v0l0.2 0.007c0.517-2.093 0.885-3.496 1.102-4.209v0l5.798-19.146 4.442 0.149-8.966 28.233-5.782-0.193-3.912-19.6c-0.217-1.089-0.461-2.579-0.732-4.472v0l-0.2-0.006c-0.375 2.037-0.688 3.509-0.939 4.415v0l-5.182 19.296zM162.156 279.089l-6.272-27.819 21.58-4.866 0.869 3.857-17.078 3.851 1.764 7.821 15.291-3.447 0.869 3.857-15.291 3.447 1.9 8.427 17.322-3.906 0.87 3.857zM192.16 270.538l-12.508-25.628 13.08-6.383c1.397-0.682 2.763-1.025 4.097-1.031 1.34-0.008 2.55 0.318 3.63 0.98 1.074 0.664 1.915 1.62 2.524 2.867v0c0.694 1.421 0.905 2.844 0.635 4.267-0.276 1.427-0.952 2.651-2.027 3.674v0l0.074 0.153c1.651-0.405 3.202-0.278 4.652 0.381 1.447 0.667 2.59 1.862 3.431 3.582v0c1.118 2.291 1.237 4.368 0.356 6.231-0.874 1.86-2.496 3.368-4.865 4.524v0zM189.032 253.609l7.997-3.903c1.169-0.571 1.95-1.36 2.342-2.368 0.386-1.005 0.317-2.044-0.207-3.118v0c-0.582-1.193-1.344-1.932-2.284-2.215-0.937-0.278-1.967-0.143-3.089 0.404v0l-8.258 4.03zM194.573 264.961l8.635-4.215c1.241-0.606 2.062-1.389 2.463-2.349 0.391-0.963 0.265-2.104-0.379-3.423v0c-0.632-1.295-1.472-2.103-2.52-2.424-1.056-0.324-2.28-0.146-3.671 0.533v0l-8.339 4.07zM220.08 254.94l-18.249-21.914 8.437-7.027c3.451-2.874 6.866-4.185 10.245-3.933 3.384 0.247 6.611 2.214 9.682 5.9v0c3.066 3.682 4.415 7.209 4.045 10.583-0.364 3.369-2.272 6.49-5.722 9.364v0zM221.096 248.948l4.892-4.074c2.323-1.934 3.578-4.03 3.764-6.287 0.188-2.267-0.829-4.733-3.049-7.4v0l-0.288-0.346c-2.238-2.687-4.488-4.143-6.752-4.368-2.254-0.225-4.542 0.63-6.865 2.565v0l-4.891 4.073zM244.654 232.165l-22.868-17.038 13.217-17.739 3.17 2.362-10.46 14.039 6.43 4.79 9.365-12.57 3.17 2.363-9.365 12.569 6.927 5.161 10.609-14.239 3.171 2.362zM264.932 198.704l-30.369-1.271 1.919-4.6 20.33 1.052 1.397 0.084 3.336 0.22 0.08-0.194-2.069-1.851c-0.314-0.254-0.594-0.49-0.843-0.709-0.252-0.228-0.478-0.431-0.679-0.609v0l-15.02-13.651 1.823-4.37 22.288 20.642zM2.955 143.322c0-6.016 4.877-10.894 10.894-10.893 6.016 0 10.894 4.877 10.893 10.893 0 6.016-4.877 10.894-10.893 10.894-6.016 0-10.894-4.877-10.894-10.894zM255.201 143.322c0-6.016 4.877-10.894 10.894-10.893 6.016 0 10.894 4.877 10.893 10.893 0 6.016-4.877 10.894-10.893 10.894-6.016 0-10.894-4.877-10.894-10.894z" fill="#ffffff" data-fill-palette-color="primary"></path></svg></g></svg></g></svg></g><g></g></svg></g></svg><rect width="280" height="280" fill="none" stroke="none" visibility="hidden"></rect></g></svg></g></svg>